<svg width="56" height="50" viewBox="0 0 56 50" fill="none" xmlns="http://www.w3.org/2000/svg">
<g clip-path="url(#clip0)">
<path fill-rule="evenodd" clip-rule="evenodd" d="M2.82864 -3.65026e-05C1.26633 -3.65026e-05 0 1.49239 0 3.33286V46.6667C0 48.5075 1.26633 50 2.82864 50H53.1711C54.7334 50 56 48.5075 56 46.6667V3.33286C56 1.49239 54.7334 -3.65026e-05 53.1711 -3.65026e-05H2.82864" fill="#D52B1E"/>
<path fill-rule="evenodd" clip-rule="evenodd" d="M23.6795 22.5609C24.4415 15.9218 26.9534 3.94749 31.744 3.94749C37.3367 3.94749 43.908 26.0838 43.9064 44.4104H38.7489C38.7489 25.1886 34.7532 7.86909 31.8782 7.86834C28.879 7.86798 26.2507 19.6493 26.2507 42.0952H21.1002C21.1002 19.6493 18.4877 7.86834 15.4726 7.86834C12.6028 7.86834 8.60994 25.1918 8.60994 44.4104H3.4525C3.45734 26.068 10.0119 3.94524 15.6147 3.94749C20.3987 3.94936 22.9114 15.9203 23.6795 22.5609" fill="#FDC82F"/>
<path fill-rule="evenodd" clip-rule="evenodd" d="M20.3088 37.0454H44.0654V29.9715H20.3088V37.0454V37.0454Z" fill="#D52B1E"/>
<path fill-rule="evenodd" clip-rule="evenodd" d="M46.1933 40.4592H47.1116C47.5663 40.4592 47.869 40.747 47.869 41.1271C47.869 41.4782 47.6396 41.7086 47.356 41.7374V41.7489C47.7909 41.9216 47.8543 42.2786 47.8594 42.7622H47.449C47.4344 42.1807 47.3267 41.9274 46.8921 41.9274H46.5546V42.7622H46.1933V40.4592V40.4592ZM46.5546 41.5589H46.9848C47.3219 41.5589 47.4586 41.4207 47.4586 41.1616C47.4586 40.9658 47.356 40.8276 47.0434 40.8276H46.5546V41.5589ZM46.9456 39.6589C47.8741 39.6589 48.6264 40.5397 48.6264 41.6395C48.6264 42.7392 47.8741 43.6201 46.9456 43.6201C46.0171 43.6201 45.2648 42.7392 45.2648 41.6395C45.2648 40.5397 46.0171 39.6589 46.9456 39.6589V39.6589ZM46.9456 43.4071C47.7715 43.4071 48.4457 42.6183 48.4457 41.6395C48.4457 40.6607 47.7715 39.872 46.9456 39.872C46.12 39.872 45.4454 40.6607 45.4454 41.6395C45.4454 42.6183 46.12 43.4071 46.9456 43.4071Z" fill="#FDC82F"/>
<g filter="url(#filter0_d)">
<path d="M15.11 32.802C15.078 32.898 15.036 33.024 14.984 33.18C14.936 33.332 14.882 33.5 14.822 33.684C14.762 33.868 14.7 34.064 14.636 34.272C14.572 34.476 14.506 34.676 14.438 34.872C14.374 35.068 14.31 35.256 14.246 35.436C14.182 35.612 14.124 35.766 14.072 35.898C14.056 35.93 14.022 35.956 13.97 35.976C13.922 35.992 13.844 36 13.736 36C13.668 36 13.598 35.996 13.526 35.988C13.454 35.98 13.386 35.964 13.322 35.94C13.262 35.916 13.208 35.884 13.16 35.844C13.116 35.804 13.082 35.754 13.058 35.694C12.998 35.49 12.94 35.264 12.884 35.016C12.832 34.764 12.78 34.508 12.728 34.248C12.676 33.988 12.624 33.734 12.572 33.486C12.524 33.234 12.474 33.006 12.422 32.802C12.422 32.858 12.42 32.954 12.416 33.09C12.412 33.226 12.408 33.384 12.404 33.564C12.4 33.744 12.394 33.938 12.386 34.146C12.382 34.354 12.378 34.558 12.374 34.758C12.37 34.954 12.366 35.138 12.362 35.31C12.358 35.478 12.356 35.616 12.356 35.724C12.356 35.844 12.348 35.92 12.332 35.952C12.32 35.984 12.296 36 12.26 36H11.93C11.702 36 11.54 35.956 11.444 35.868C11.352 35.776 11.306 35.642 11.306 35.466C11.306 35.418 11.308 35.338 11.312 35.226C11.32 35.11 11.33 34.974 11.342 34.818C11.354 34.662 11.366 34.492 11.378 34.308C11.394 34.12 11.41 33.93 11.426 33.738C11.446 33.478 11.462 33.262 11.474 33.09C11.49 32.914 11.502 32.768 11.51 32.652C11.518 32.536 11.524 32.442 11.528 32.37C11.536 32.298 11.54 32.234 11.54 32.178C11.544 32.122 11.546 32.07 11.546 32.022C11.55 31.97 11.552 31.906 11.552 31.83C11.552 31.798 11.564 31.776 11.588 31.764C11.612 31.748 11.634 31.74 11.654 31.74H12.494C12.65 31.74 12.778 31.766 12.878 31.818C12.978 31.866 13.06 31.942 13.124 32.046C13.188 32.15 13.24 32.286 13.28 32.454C13.32 32.618 13.356 32.814 13.388 33.042C13.424 33.27 13.462 33.534 13.502 33.834C13.546 34.13 13.602 34.464 13.67 34.836C13.734 34.588 13.788 34.382 13.832 34.218C13.876 34.054 13.912 33.918 13.94 33.81C13.972 33.698 13.998 33.606 14.018 33.534C14.038 33.462 14.056 33.396 14.072 33.336C14.088 33.272 14.106 33.204 14.126 33.132C14.146 33.06 14.17 32.97 14.198 32.862C14.226 32.754 14.26 32.62 14.3 32.46C14.344 32.296 14.398 32.09 14.462 31.842C14.47 31.818 14.484 31.796 14.504 31.776C14.524 31.752 14.56 31.74 14.612 31.74H15.548C15.676 31.74 15.778 31.754 15.854 31.782C15.934 31.806 15.996 31.842 16.04 31.89C16.084 31.938 16.114 31.998 16.13 32.07C16.146 32.138 16.154 32.218 16.154 32.31C16.154 32.402 16.148 32.552 16.136 32.76C16.128 32.964 16.114 33.196 16.094 33.456C16.078 33.712 16.06 33.978 16.04 34.254C16.024 34.53 16.006 34.786 15.986 35.022C15.97 35.258 15.956 35.458 15.944 35.622C15.932 35.786 15.924 35.882 15.92 35.91C15.916 35.942 15.908 35.966 15.896 35.982C15.884 35.994 15.86 36 15.824 36H15.494C15.266 36 15.104 35.956 15.008 35.868C14.916 35.776 14.87 35.658 14.87 35.514C14.87 35.47 14.874 35.39 14.882 35.274C14.894 35.158 14.908 35.022 14.924 34.866C14.94 34.71 14.958 34.54 14.978 34.356C14.998 34.168 15.016 33.982 15.032 33.798C15.048 33.614 15.062 33.436 15.074 33.264C15.09 33.088 15.102 32.934 15.11 32.802ZM18.1779 35.262C18.2939 35.262 18.3939 35.246 18.4779 35.214C18.5659 35.182 18.6419 35.146 18.7059 35.106C18.7699 35.066 18.8239 35.03 18.8679 34.998C18.9119 34.966 18.9519 34.95 18.9879 34.95C19.0799 34.95 19.1259 35.01 19.1259 35.13C19.1259 35.158 19.1199 35.198 19.1079 35.25C19.0959 35.298 19.0799 35.35 19.0599 35.406C19.0399 35.458 19.0179 35.508 18.9939 35.556C18.9739 35.604 18.9539 35.64 18.9339 35.664C18.9139 35.684 18.8779 35.716 18.8259 35.76C18.7779 35.804 18.7119 35.848 18.6279 35.892C18.5439 35.936 18.4459 35.974 18.3339 36.006C18.2219 36.042 18.0979 36.06 17.9619 36.06C17.8099 36.06 17.6519 36.038 17.4879 35.994C17.3279 35.946 17.1819 35.866 17.0499 35.754C16.9179 35.638 16.8079 35.484 16.7199 35.292C16.6359 35.096 16.5939 34.852 16.5939 34.56C16.5939 34.456 16.5999 34.338 16.6119 34.206C16.6279 34.07 16.6579 33.932 16.7019 33.792C16.7459 33.648 16.8039 33.508 16.8759 33.372C16.9519 33.232 17.0519 33.108 17.1759 33C17.2999 32.892 17.4479 32.806 17.6199 32.742C17.7959 32.674 18.0039 32.64 18.2439 32.64C18.4399 32.64 18.6079 32.664 18.7479 32.712C18.8919 32.756 19.0099 32.818 19.1019 32.898C19.1939 32.974 19.2619 33.064 19.3059 33.168C19.3539 33.272 19.3779 33.384 19.3779 33.504C19.3779 33.72 19.3099 33.88 19.1739 33.984C19.0379 34.084 18.8459 34.134 18.5979 34.134C18.5379 34.134 18.4959 34.13 18.4719 34.122C18.4519 34.11 18.4419 34.086 18.4419 34.05C18.4419 33.954 18.4399 33.868 18.4359 33.792C18.4319 33.716 18.4199 33.652 18.3999 33.6C18.3839 33.548 18.3579 33.508 18.3219 33.48C18.2859 33.452 18.2339 33.438 18.1659 33.438C18.0419 33.438 17.9419 33.478 17.8659 33.558C17.7939 33.638 17.7379 33.736 17.6979 33.852C17.6619 33.964 17.6379 34.08 17.6259 34.2C17.6179 34.32 17.6139 34.42 17.6139 34.5C17.6139 34.784 17.6579 34.982 17.7459 35.094C17.8379 35.206 17.9819 35.262 18.1779 35.262ZM23.0548 35.61C23.0548 35.642 23.0348 35.684 22.9948 35.736C22.9588 35.784 22.9068 35.832 22.8388 35.88C22.7748 35.928 22.6988 35.97 22.6108 36.006C22.5268 36.042 22.4368 36.06 22.3408 36.06C22.1928 36.06 22.0628 36.014 21.9508 35.922C21.8388 35.826 21.7368 35.696 21.6448 35.532C21.5568 35.368 21.4748 35.174 21.3988 34.95C21.3228 34.722 21.2448 34.476 21.1648 34.212L20.9368 34.362L20.8228 35.91C20.8188 35.942 20.8108 35.966 20.7988 35.982C20.7868 35.994 20.7628 36 20.7268 36H20.3968C20.1688 36 20.0068 35.956 19.9108 35.868C19.8188 35.776 19.7728 35.642 19.7728 35.466C19.7728 35.41 19.7748 35.326 19.7788 35.214C19.7868 35.098 19.7968 34.964 19.8088 34.812C19.8208 34.656 19.8328 34.486 19.8448 34.302C19.8608 34.118 19.8768 33.93 19.8928 33.738C19.9208 33.354 19.9428 33.05 19.9588 32.826C19.9788 32.602 19.9928 32.426 20.0008 32.298C20.0088 32.166 20.0148 32.07 20.0188 32.01C20.0228 31.946 20.0248 31.886 20.0248 31.83C20.0248 31.77 20.0568 31.74 20.1208 31.74H20.4508C20.5788 31.74 20.6808 31.754 20.7568 31.782C20.8368 31.806 20.8988 31.842 20.9428 31.89C20.9868 31.938 21.0168 31.998 21.0328 32.07C21.0488 32.138 21.0568 32.218 21.0568 32.31C21.0568 32.402 21.0508 32.552 21.0388 32.76C21.0308 32.964 21.0168 33.194 20.9968 33.45C21.1328 33.282 21.2948 33.074 21.4828 32.826C21.6748 32.578 21.9068 32.272 22.1788 31.908C22.1908 31.892 22.2068 31.872 22.2268 31.848C22.2508 31.82 22.2748 31.794 22.2988 31.77C22.3268 31.746 22.3548 31.726 22.3828 31.71C22.4148 31.69 22.4448 31.68 22.4728 31.68C22.5248 31.68 22.5848 31.708 22.6528 31.764C22.7208 31.816 22.7848 31.882 22.8448 31.962C22.9048 32.038 22.9548 32.118 22.9948 32.202C23.0388 32.282 23.0608 32.35 23.0608 32.406C23.0608 32.522 22.9568 32.696 22.7488 32.928C22.5408 33.156 22.2428 33.42 21.8548 33.72C21.9228 33.836 22.0008 33.962 22.0888 34.098C22.1768 34.23 22.2648 34.366 22.3528 34.506C22.4408 34.642 22.5268 34.776 22.6108 34.908C22.6948 35.036 22.7688 35.152 22.8328 35.256C22.9008 35.356 22.9548 35.438 22.9948 35.502C23.0348 35.566 23.0548 35.602 23.0548 35.61ZM24.0691 36C23.9451 36 23.8431 35.988 23.7631 35.964C23.6871 35.936 23.6251 35.898 23.5771 35.85C23.5331 35.802 23.5011 35.744 23.4811 35.676C23.4651 35.604 23.4571 35.522 23.4571 35.43C23.4571 35.37 23.4591 35.286 23.4631 35.178C23.4711 35.066 23.4831 34.914 23.4991 34.722C23.5151 34.526 23.5331 34.28 23.5531 33.984C23.5771 33.684 23.6051 33.314 23.6371 32.874C23.6411 32.786 23.6511 32.734 23.6671 32.718C23.6791 32.706 23.7111 32.7 23.7631 32.7H23.9971C24.1211 32.7 24.2211 32.712 24.2971 32.736C24.3771 32.76 24.4391 32.796 24.4831 32.844C24.5311 32.892 24.5631 32.95 24.5791 33.018C24.5991 33.086 24.6091 33.162 24.6091 33.246C24.6091 33.306 24.6051 33.396 24.5971 33.516C24.5891 33.636 24.5771 33.8 24.5611 34.008C24.5491 34.212 24.5311 34.468 24.5071 34.776C24.4831 35.08 24.4531 35.448 24.4171 35.88C24.4131 35.928 24.4031 35.96 24.3871 35.976C24.3711 35.992 24.3371 36 24.2851 36H24.0691ZM23.6431 31.992C23.6431 31.832 23.7011 31.706 23.8171 31.614C23.9331 31.522 24.0891 31.476 24.2851 31.476C24.4571 31.476 24.5811 31.512 24.6571 31.584C24.7371 31.652 24.7771 31.744 24.7771 31.86C24.7771 32.008 24.7211 32.132 24.6091 32.232C24.5011 32.328 24.3411 32.376 24.1291 32.376C23.8051 32.376 23.6431 32.248 23.6431 31.992ZM27.1846 35.472C27.1846 35.384 27.1906 35.27 27.2026 35.13C27.2186 34.986 27.2326 34.836 27.2446 34.68C27.2606 34.52 27.2746 34.366 27.2866 34.218C27.3026 34.07 27.3106 33.946 27.3106 33.846C27.3106 33.742 27.2846 33.65 27.2326 33.57C27.1846 33.486 27.0886 33.444 26.9446 33.444C26.8046 33.444 26.6886 33.478 26.5966 33.546C26.5046 33.614 26.4266 33.738 26.3626 33.918C26.3026 34.098 26.2526 34.346 26.2126 34.662C26.1726 34.978 26.1346 35.384 26.0986 35.88C26.0946 35.928 26.0846 35.96 26.0686 35.976C26.0526 35.992 26.0186 36 25.9666 36H25.7506C25.6266 36 25.5246 35.988 25.4446 35.964C25.3686 35.936 25.3066 35.898 25.2586 35.85C25.2146 35.802 25.1826 35.744 25.1626 35.676C25.1466 35.604 25.1386 35.522 25.1386 35.43C25.1386 35.37 25.1406 35.286 25.1446 35.178C25.1526 35.066 25.1646 34.914 25.1806 34.722C25.1966 34.526 25.2146 34.28 25.2346 33.984C25.2586 33.684 25.2866 33.314 25.3186 32.874C25.3226 32.786 25.3326 32.734 25.3486 32.718C25.3606 32.706 25.3926 32.7 25.4446 32.7H25.6786C25.7986 32.7 25.8966 32.714 25.9726 32.742C26.0526 32.77 26.1166 32.808 26.1646 32.856C26.2126 32.9 26.2466 32.954 26.2666 33.018C26.2866 33.078 26.2986 33.14 26.3026 33.204C26.4266 32.992 26.5686 32.846 26.7286 32.766C26.8886 32.682 27.0886 32.64 27.3286 32.64C27.4966 32.64 27.6426 32.658 27.7666 32.694C27.8906 32.73 27.9926 32.792 28.0726 32.88C28.1566 32.964 28.2186 33.076 28.2586 33.216C28.2986 33.352 28.3186 33.522 28.3186 33.726C28.3186 33.79 28.3146 33.882 28.3066 34.002C28.2986 34.122 28.2886 34.254 28.2766 34.398C28.2646 34.538 28.2506 34.686 28.2346 34.842C28.2226 34.994 28.2106 35.136 28.1986 35.268C28.1866 35.4 28.1766 35.516 28.1686 35.616C28.1606 35.716 28.1566 35.782 28.1566 35.814C28.1566 35.902 28.1466 35.956 28.1266 35.976C28.1066 35.992 28.0626 36 27.9946 36H27.8026C27.6746 36 27.5706 35.988 27.4906 35.964C27.4106 35.94 27.3486 35.906 27.3046 35.862C27.2606 35.818 27.2286 35.764 27.2086 35.7C27.1926 35.632 27.1846 35.556 27.1846 35.472ZM30.8154 35.292C30.7154 35.472 30.5934 35.606 30.4494 35.694C30.3054 35.778 30.1254 35.82 29.9094 35.82C29.7454 35.82 29.5954 35.794 29.4594 35.742C29.3234 35.69 29.2074 35.608 29.1114 35.496C29.0154 35.384 28.9394 35.244 28.8834 35.076C28.8314 34.904 28.8054 34.7 28.8054 34.464C28.8054 34.272 28.8254 34.07 28.8654 33.858C28.9054 33.642 28.9774 33.444 29.0814 33.264C29.1894 33.084 29.3354 32.936 29.5194 32.82C29.7034 32.7 29.9394 32.64 30.2274 32.64C30.3474 32.64 30.4494 32.654 30.5334 32.682C30.6214 32.706 30.6954 32.74 30.7554 32.784C30.8194 32.828 30.8694 32.88 30.9054 32.94C30.9454 33 30.9754 33.064 30.9954 33.132C30.9954 33.136 30.9954 33.122 30.9954 33.09C30.9994 33.054 31.0034 33.014 31.0074 32.97C31.0114 32.926 31.0134 32.884 31.0134 32.844C31.0174 32.8 31.0194 32.772 31.0194 32.76C31.0234 32.72 31.0494 32.7 31.0974 32.7H31.3734C31.5814 32.7 31.7314 32.744 31.8234 32.832C31.9194 32.916 31.9674 33.078 31.9674 33.318C31.9674 33.35 31.9654 33.424 31.9614 33.54C31.9574 33.652 31.9494 33.788 31.9374 33.948C31.9294 34.108 31.9174 34.286 31.9014 34.482C31.8854 34.674 31.8674 34.868 31.8474 35.064C31.8274 35.26 31.8054 35.448 31.7814 35.628C31.7574 35.808 31.7314 35.966 31.7034 36.102C31.6754 36.238 31.6274 36.37 31.5594 36.498C31.4914 36.626 31.3954 36.74 31.2714 36.84C31.1474 36.94 30.9874 37.02 30.7914 37.08C30.5994 37.14 30.3634 37.17 30.0834 37.17C29.8714 37.17 29.6854 37.15 29.5254 37.11C29.3694 37.07 29.2394 37.016 29.1354 36.948C29.0314 36.884 28.9514 36.81 28.8954 36.726C28.8434 36.642 28.8174 36.558 28.8174 36.474C28.8174 36.398 28.8334 36.332 28.8654 36.276C28.8974 36.22 28.9394 36.174 28.9914 36.138C29.0434 36.102 29.0994 36.074 29.1594 36.054C29.2234 36.038 29.2834 36.03 29.3394 36.03C29.4074 36.03 29.4574 36.05 29.4894 36.09C29.5214 36.13 29.5574 36.174 29.5974 36.222C29.6374 36.274 29.6934 36.32 29.7654 36.36C29.8374 36.4 29.9494 36.42 30.1014 36.42C30.3654 36.42 30.5494 36.322 30.6534 36.126C30.7614 35.934 30.8154 35.656 30.8154 35.292ZM30.3114 35.022C30.4554 35.022 30.5674 34.988 30.6474 34.92C30.7314 34.852 30.7954 34.77 30.8394 34.674C30.8834 34.578 30.9114 34.478 30.9234 34.374C30.9354 34.27 30.9414 34.18 30.9414 34.104C30.9414 33.864 30.9034 33.694 30.8274 33.594C30.7554 33.49 30.6454 33.438 30.4974 33.438C30.3494 33.438 30.2334 33.478 30.1494 33.558C30.0654 33.638 30.0014 33.734 29.9574 33.846C29.9174 33.954 29.8914 34.064 29.8794 34.176C29.8674 34.284 29.8614 34.368 29.8614 34.428C29.8614 34.628 29.8954 34.778 29.9634 34.878C30.0314 34.974 30.1474 35.022 30.3114 35.022ZM35.029 36.06C34.793 36.06 34.599 36.044 34.447 36.012C34.295 35.984 34.173 35.942 34.081 35.886C33.993 35.826 33.931 35.752 33.895 35.664C33.863 35.576 33.847 35.472 33.847 35.352C33.847 35.316 33.849 35.266 33.853 35.202C33.857 35.134 33.863 35.04 33.871 34.92C33.879 34.8 33.889 34.646 33.901 34.458C33.917 34.266 33.937 34.026 33.961 33.738C33.989 33.382 34.011 33.1 34.027 32.892C34.043 32.684 34.055 32.524 34.063 32.412C34.071 32.296 34.075 32.216 34.075 32.172C34.079 32.124 34.081 32.084 34.081 32.052C34.081 31.988 34.081 31.936 34.081 31.896C34.085 31.856 34.089 31.826 34.093 31.806C34.101 31.782 34.111 31.766 34.123 31.758C34.139 31.746 34.161 31.74 34.189 31.74C34.425 31.724 34.625 31.712 34.789 31.704C34.957 31.696 35.103 31.692 35.227 31.692C35.531 31.692 35.791 31.718 36.007 31.77C36.227 31.818 36.405 31.888 36.541 31.98C36.677 32.072 36.777 32.186 36.841 32.322C36.905 32.458 36.937 32.612 36.937 32.784C36.937 32.88 36.927 32.98 36.907 33.084C36.887 33.184 36.853 33.28 36.805 33.372C36.757 33.464 36.691 33.546 36.607 33.618C36.527 33.686 36.425 33.736 36.301 33.768C36.533 33.84 36.697 33.96 36.793 34.128C36.889 34.292 36.937 34.488 36.937 34.716C36.937 34.9 36.907 35.074 36.847 35.238C36.787 35.398 36.683 35.54 36.535 35.664C36.387 35.784 36.191 35.88 35.947 35.952C35.703 36.024 35.397 36.06 35.029 36.06ZM35.371 34.2C35.327 34.2 35.273 34.204 35.209 34.212C35.145 34.216 35.079 34.224 35.011 34.236L34.945 35.214C35.089 35.258 35.219 35.28 35.335 35.28C35.459 35.28 35.559 35.262 35.635 35.226C35.711 35.19 35.769 35.146 35.809 35.094C35.853 35.038 35.881 34.978 35.893 34.914C35.909 34.846 35.917 34.784 35.917 34.728C35.917 34.58 35.875 34.456 35.791 34.356C35.711 34.252 35.571 34.2 35.371 34.2ZM35.119 32.55C35.111 32.654 35.103 32.776 35.095 32.916C35.091 33.056 35.083 33.208 35.071 33.372C35.199 33.404 35.313 33.42 35.413 33.42C35.533 33.42 35.629 33.406 35.701 33.378C35.773 33.35 35.829 33.314 35.869 33.27C35.913 33.226 35.941 33.178 35.953 33.126C35.969 33.074 35.977 33.024 35.977 32.976C35.977 32.852 35.935 32.746 35.851 32.658C35.771 32.566 35.631 32.52 35.431 32.52C35.387 32.52 35.337 32.524 35.281 32.532C35.229 32.536 35.175 32.542 35.119 32.55ZM38.5658 33.21C38.5658 33.294 38.5578 33.412 38.5418 33.564C38.5298 33.716 38.5158 33.874 38.4998 34.038C38.4878 34.202 38.4738 34.356 38.4578 34.5C38.4458 34.644 38.4398 34.748 38.4398 34.812C38.4398 34.952 38.4738 35.062 38.5418 35.142C38.6138 35.218 38.7118 35.256 38.8358 35.256C38.9438 35.256 39.0338 35.214 39.1058 35.13C39.1818 35.042 39.2418 34.93 39.2858 34.794C39.3338 34.654 39.3718 34.496 39.3998 34.32C39.4278 34.144 39.4478 33.966 39.4598 33.786C39.4758 33.606 39.4878 33.432 39.4958 33.264C39.5078 33.092 39.5198 32.944 39.5318 32.82C39.5358 32.788 39.5478 32.76 39.5678 32.736C39.5878 32.712 39.6198 32.7 39.6638 32.7H39.8798C40.0038 32.7 40.1038 32.714 40.1798 32.742C40.2598 32.766 40.3218 32.802 40.3658 32.85C40.4138 32.898 40.4458 32.958 40.4618 33.03C40.4818 33.098 40.4918 33.178 40.4918 33.27C40.4918 33.33 40.4878 33.416 40.4798 33.528C40.4758 33.636 40.4658 33.788 40.4498 33.984C40.4338 34.176 40.4138 34.422 40.3898 34.722C40.3698 35.018 40.3438 35.386 40.3118 35.826C40.3038 35.91 40.2938 35.96 40.2818 35.976C40.2738 35.992 40.2418 36 40.1858 36H39.9518C39.8318 36 39.7318 35.986 39.6518 35.958C39.5758 35.93 39.5138 35.894 39.4658 35.85C39.4178 35.806 39.3838 35.754 39.3638 35.694C39.3438 35.634 39.3318 35.572 39.3278 35.508C39.2678 35.612 39.1998 35.7 39.1238 35.772C39.0518 35.844 38.9758 35.902 38.8958 35.946C38.8158 35.986 38.7338 36.014 38.6498 36.03C38.5658 36.05 38.4838 36.06 38.4038 36.06C38.2518 36.06 38.1158 36.036 37.9958 35.988C37.8758 35.936 37.7738 35.868 37.6898 35.784C37.6098 35.7 37.5478 35.6 37.5038 35.484C37.4598 35.368 37.4378 35.244 37.4378 35.112C37.4378 35.06 37.4398 34.976 37.4438 34.86C37.4518 34.74 37.4598 34.606 37.4678 34.458C37.4798 34.31 37.4918 34.154 37.5038 33.99C37.5158 33.822 37.5258 33.664 37.5338 33.516C37.5458 33.368 37.5558 33.238 37.5638 33.126C37.5758 33.014 37.5838 32.934 37.5878 32.886C37.5958 32.814 37.6118 32.766 37.6358 32.742C37.6598 32.714 37.6998 32.7 37.7558 32.7H37.9478C38.0718 32.7 38.1738 32.712 38.2538 32.736C38.3338 32.76 38.3958 32.794 38.4398 32.838C38.4878 32.882 38.5198 32.936 38.5358 33C38.5558 33.06 38.5658 33.13 38.5658 33.21ZM42.9555 34.134C42.9315 34.134 42.9035 34.134 42.8715 34.134C42.8435 34.13 42.8155 34.126 42.7875 34.122C42.7595 34.114 42.7355 34.106 42.7155 34.098C42.6955 34.086 42.6855 34.072 42.6855 34.056C42.6855 34.004 42.6875 33.956 42.6915 33.912C42.6955 33.868 42.6975 33.822 42.6975 33.774C42.6975 33.686 42.6855 33.614 42.6615 33.558C42.6375 33.502 42.5895 33.474 42.5175 33.474C42.4055 33.474 42.3115 33.548 42.2355 33.696C42.1635 33.84 42.1175 34.058 42.0975 34.35C42.0895 34.478 42.0775 34.624 42.0615 34.788C42.0495 34.948 42.0375 35.104 42.0255 35.256C42.0135 35.404 42.0035 35.536 41.9955 35.652C41.9875 35.768 41.9835 35.844 41.9835 35.88C41.9835 35.92 41.9695 35.95 41.9415 35.97C41.9135 35.99 41.8835 36 41.8515 36H41.6355C41.5115 36 41.4095 35.988 41.3295 35.964C41.2535 35.936 41.1915 35.898 41.1435 35.85C41.0995 35.802 41.0675 35.744 41.0475 35.676C41.0315 35.604 41.0235 35.522 41.0235 35.43C41.0235 35.37 41.0255 35.286 41.0295 35.178C41.0375 35.066 41.0495 34.914 41.0655 34.722C41.0815 34.526 41.0995 34.28 41.1195 33.984C41.1435 33.684 41.1715 33.314 41.2035 32.874C41.2115 32.758 41.2535 32.7 41.3295 32.7H41.5635C41.6755 32.7 41.7695 32.712 41.8455 32.736C41.9215 32.76 41.9835 32.794 42.0315 32.838C42.0795 32.878 42.1135 32.926 42.1335 32.982C42.1575 33.038 42.1735 33.096 42.1815 33.156C42.2295 33.064 42.2855 32.986 42.3495 32.922C42.4175 32.854 42.4875 32.8 42.5595 32.76C42.6315 32.716 42.7055 32.686 42.7815 32.67C42.8575 32.65 42.9275 32.64 42.9915 32.64C43.0675 32.64 43.1435 32.654 43.2195 32.682C43.2995 32.71 43.3715 32.752 43.4355 32.808C43.4995 32.864 43.5495 32.936 43.5855 33.024C43.6255 33.112 43.6455 33.216 43.6455 33.336C43.6455 33.444 43.6295 33.546 43.5975 33.642C43.5655 33.738 43.5195 33.824 43.4595 33.9C43.3995 33.972 43.3255 34.03 43.2375 34.074C43.1535 34.114 43.0595 34.134 42.9555 34.134ZM45.8506 35.292C45.7506 35.472 45.6286 35.606 45.4846 35.694C45.3406 35.778 45.1606 35.82 44.9446 35.82C44.7806 35.82 44.6306 35.794 44.4946 35.742C44.3586 35.69 44.2426 35.608 44.1466 35.496C44.0506 35.384 43.9746 35.244 43.9186 35.076C43.8666 34.904 43.8406 34.7 43.8406 34.464C43.8406 34.272 43.8606 34.07 43.9006 33.858C43.9406 33.642 44.0126 33.444 44.1166 33.264C44.2246 33.084 44.3706 32.936 44.5546 32.82C44.7386 32.7 44.9746 32.64 45.2626 32.64C45.3826 32.64 45.4846 32.654 45.5686 32.682C45.6566 32.706 45.7306 32.74 45.7906 32.784C45.8546 32.828 45.9046 32.88 45.9406 32.94C45.9806 33 46.0106 33.064 46.0306 33.132C46.0306 33.136 46.0306 33.122 46.0306 33.09C46.0346 33.054 46.0386 33.014 46.0426 32.97C46.0466 32.926 46.0486 32.884 46.0486 32.844C46.0526 32.8 46.0546 32.772 46.0546 32.76C46.0586 32.72 46.0846 32.7 46.1326 32.7H46.4086C46.6166 32.7 46.7666 32.744 46.8586 32.832C46.9546 32.916 47.0026 33.078 47.0026 33.318C47.0026 33.35 47.0006 33.424 46.9966 33.54C46.9926 33.652 46.9846 33.788 46.9726 33.948C46.9646 34.108 46.9526 34.286 46.9366 34.482C46.9206 34.674 46.9026 34.868 46.8826 35.064C46.8626 35.26 46.8406 35.448 46.8166 35.628C46.7926 35.808 46.7666 35.966 46.7386 36.102C46.7106 36.238 46.6626 36.37 46.5946 36.498C46.5266 36.626 46.4306 36.74 46.3066 36.84C46.1826 36.94 46.0226 37.02 45.8266 37.08C45.6346 37.14 45.3986 37.17 45.1186 37.17C44.9066 37.17 44.7206 37.15 44.5606 37.11C44.4046 37.07 44.2746 37.016 44.1706 36.948C44.0666 36.884 43.9866 36.81 43.9306 36.726C43.8786 36.642 43.8526 36.558 43.8526 36.474C43.8526 36.398 43.8686 36.332 43.9006 36.276C43.9326 36.22 43.9746 36.174 44.0266 36.138C44.0786 36.102 44.1346 36.074 44.1946 36.054C44.2586 36.038 44.3186 36.03 44.3746 36.03C44.4426 36.03 44.4926 36.05 44.5246 36.09C44.5566 36.13 44.5926 36.174 44.6326 36.222C44.6726 36.274 44.7286 36.32 44.8006 36.36C44.8726 36.4 44.9846 36.42 45.1366 36.42C45.4006 36.42 45.5846 36.322 45.6886 36.126C45.7966 35.934 45.8506 35.656 45.8506 35.292ZM45.3466 35.022C45.4906 35.022 45.6026 34.988 45.6826 34.92C45.7666 34.852 45.8306 34.77 45.8746 34.674C45.9186 34.578 45.9466 34.478 45.9586 34.374C45.9706 34.27 45.9766 34.18 45.9766 34.104C45.9766 33.864 45.9386 33.694 45.8626 33.594C45.7906 33.49 45.6806 33.438 45.5326 33.438C45.3846 33.438 45.2686 33.478 45.1846 33.558C45.1006 33.638 45.0366 33.734 44.9926 33.846C44.9526 33.954 44.9266 34.064 44.9146 34.176C44.9026 34.284 44.8966 34.368 44.8966 34.428C44.8966 34.628 44.9306 34.778 44.9986 34.878C45.0666 34.974 45.1826 35.022 45.3466 35.022ZM48.9191 36.06C48.7431 36.06 48.5671 36.038 48.3911 35.994C48.2191 35.95 48.0631 35.874 47.9231 35.766C47.7871 35.658 47.6751 35.514 47.5871 35.334C47.4991 35.154 47.4551 34.928 47.4551 34.656C47.4551 34.556 47.4631 34.436 47.4791 34.296C47.4951 34.156 47.5251 34.012 47.5691 33.864C47.6171 33.716 47.6811 33.57 47.7611 33.426C47.8451 33.278 47.9531 33.146 48.0851 33.03C48.2171 32.914 48.3771 32.82 48.5651 32.748C48.7531 32.676 48.9771 32.64 49.2371 32.64C49.4451 32.64 49.6211 32.664 49.7651 32.712C49.9091 32.76 50.0251 32.826 50.1131 32.91C50.2011 32.99 50.2651 33.084 50.3051 33.192C50.3451 33.3 50.3651 33.416 50.3651 33.54C50.3651 33.724 50.3271 33.88 50.2511 34.008C50.1791 34.136 50.0831 34.244 49.9631 34.332C49.8471 34.416 49.7171 34.482 49.5731 34.53C49.4291 34.578 49.2871 34.616 49.1471 34.644C49.0071 34.668 48.8771 34.684 48.7571 34.692C48.6411 34.696 48.5511 34.698 48.4871 34.698C48.4871 34.774 48.4971 34.85 48.5171 34.926C48.5411 34.998 48.5751 35.062 48.6191 35.118C48.6631 35.174 48.7211 35.22 48.7931 35.256C48.8651 35.292 48.9531 35.31 49.0571 35.31C49.1611 35.31 49.2411 35.294 49.2971 35.262C49.3571 35.226 49.4051 35.188 49.4411 35.148C49.4771 35.104 49.5071 35.066 49.5311 35.034C49.5591 34.998 49.5951 34.98 49.6391 34.98C49.6591 34.98 49.6931 34.986 49.7411 34.998C49.7931 35.006 49.8451 35.026 49.8971 35.058C49.9491 35.09 49.9951 35.134 50.0351 35.19C50.0751 35.246 50.0951 35.318 50.0951 35.406C50.0951 35.522 50.0591 35.622 49.9871 35.706C49.9151 35.79 49.8211 35.858 49.7051 35.91C49.5931 35.962 49.4671 36 49.3271 36.024C49.1871 36.048 49.0511 36.06 48.9191 36.06ZM49.0331 33.438C48.9451 33.438 48.8691 33.464 48.8051 33.516C48.7451 33.564 48.6931 33.626 48.6491 33.702C48.6091 33.778 48.5771 33.862 48.5531 33.954C48.5331 34.046 48.5171 34.134 48.5051 34.218C48.7531 34.214 48.9531 34.172 49.1051 34.092C49.2611 34.012 49.3391 33.898 49.3391 33.75C49.3391 33.67 49.3131 33.598 49.2611 33.534C49.2131 33.47 49.1371 33.438 49.0331 33.438ZM52.6645 34.134C52.6405 34.134 52.6125 34.134 52.5805 34.134C52.5525 34.13 52.5245 34.126 52.4965 34.122C52.4685 34.114 52.4445 34.106 52.4245 34.098C52.4045 34.086 52.3945 34.072 52.3945 34.056C52.3945 34.004 52.3965 33.956 52.4005 33.912C52.4045 33.868 52.4065 33.822 52.4065 33.774C52.4065 33.686 52.3945 33.614 52.3705 33.558C52.3465 33.502 52.2985 33.474 52.2265 33.474C52.1145 33.474 52.0205 33.548 51.9445 33.696C51.8725 33.84 51.8265 34.058 51.8065 34.35C51.7985 34.478 51.7865 34.624 51.7705 34.788C51.7585 34.948 51.7465 35.104 51.7345 35.256C51.7225 35.404 51.7125 35.536 51.7045 35.652C51.6965 35.768 51.6925 35.844 51.6925 35.88C51.6925 35.92 51.6785 35.95 51.6505 35.97C51.6225 35.99 51.5925 36 51.5605 36H51.3445C51.2205 36 51.1185 35.988 51.0385 35.964C50.9625 35.936 50.9005 35.898 50.8525 35.85C50.8085 35.802 50.7765 35.744 50.7565 35.676C50.7405 35.604 50.7325 35.522 50.7325 35.43C50.7325 35.37 50.7345 35.286 50.7385 35.178C50.7465 35.066 50.7585 34.914 50.7745 34.722C50.7905 34.526 50.8085 34.28 50.8285 33.984C50.8525 33.684 50.8805 33.314 50.9125 32.874C50.9205 32.758 50.9625 32.7 51.0385 32.7H51.2725C51.3845 32.7 51.4785 32.712 51.5545 32.736C51.6305 32.76 51.6925 32.794 51.7405 32.838C51.7885 32.878 51.8225 32.926 51.8425 32.982C51.8665 33.038 51.8825 33.096 51.8905 33.156C51.9385 33.064 51.9945 32.986 52.0585 32.922C52.1265 32.854 52.1965 32.8 52.2685 32.76C52.3405 32.716 52.4145 32.686 52.4905 32.67C52.5665 32.65 52.6365 32.64 52.7005 32.64C52.7765 32.64 52.8525 32.654 52.9285 32.682C53.0085 32.71 53.0805 32.752 53.1445 32.808C53.2085 32.864 53.2585 32.936 53.2945 33.024C53.3345 33.112 53.3545 33.216 53.3545 33.336C53.3545 33.444 53.3385 33.546 53.3065 33.642C53.2745 33.738 53.2285 33.824 53.1685 33.9C53.1085 33.972 53.0345 34.03 52.9465 34.074C52.8625 34.114 52.7685 34.134 52.6645 34.134Z" fill="white"/>
</g>
</g>
<defs>
<filter id="filter0_d" x="7.306" y="31.476" width="50.0485" height="13.694" filterUnits="userSpaceOnUse" color-interpolation-filters="sRGB">
<feFlood flood-opacity="0" result="BackgroundImageFix"/>
<feColorMatrix in="SourceAlpha" type="matrix" values="0 0 0 0 0 0 0 0 0 0 0 0 0 0 0 0 0 0 127 0"/>
<feOffset dy="4"/>
<feGaussianBlur stdDeviation="2"/>
<feColorMatrix type="matrix" values="0 0 0 0 0 0 0 0 0 0 0 0 0 0 0 0 0 0 0.25 0"/>
<feBlend mode="normal" in2="BackgroundImageFix" result="effect1_dropShadow"/>
<feBlend mode="normal" in="SourceGraphic" in2="effect1_dropShadow" result="shape"/>
</filter>
<clipPath id="clip0">
<rect width="56" height="50" fill="white"/>
</clipPath>
</defs>
</svg>
